<mxfile host="app.diagrams.net" modified="2024-06-13T15:03:56.873Z" agent="Mozilla/5.0 (Windows NT 10.0; Win64; x64) AppleWebKit/537.36 (KHTML, like Gecko) Chrome/125.0.0.0 Safari/537.36" etag="Ker_GpFRZ8KC9w6-kMGv" version="24.5.4" type="github">
  <diagram name="Page-1" id="Ms-HFSB1JRzO0Og8gXqM">
    <mxGraphModel dx="1434" dy="738" grid="1" gridSize="10" guides="1" tooltips="1" connect="1" arrows="1" fold="1" page="1" pageScale="1" pageWidth="583" pageHeight="827" math="0" shadow="0">
      <root>
        <mxCell id="0" />
        <mxCell id="1" parent="0" />
        <mxCell id="jPjjjJ8ltsQjpl7L8rjn-1" value="Secuencia generacion horarios" style="shape=umlFrame;whiteSpace=wrap;html=1;pointerEvents=0;recursiveResize=0;container=1;collapsible=0;width=170;height=50;" vertex="1" parent="1">
          <mxGeometry x="30" y="20" width="800" height="530" as="geometry" />
        </mxCell>
        <mxCell id="jPjjjJ8ltsQjpl7L8rjn-2" value="Sistema" style="shape=umlLifeline;perimeter=lifelinePerimeter;whiteSpace=wrap;html=1;container=1;dropTarget=0;collapsible=0;recursiveResize=0;outlineConnect=0;portConstraint=eastwest;newEdgeStyle={&quot;edgeStyle&quot;:&quot;elbowEdgeStyle&quot;,&quot;elbow&quot;:&quot;vertical&quot;,&quot;curved&quot;:0,&quot;rounded&quot;:0};size=50;" vertex="1" parent="jPjjjJ8ltsQjpl7L8rjn-1">
          <mxGeometry x="60" y="75" width="145" height="420" as="geometry" />
        </mxCell>
        <mxCell id="jPjjjJ8ltsQjpl7L8rjn-3" value="" style="html=1;points=[[0,0,0,0,5],[0,1,0,0,-5],[1,0,0,0,5],[1,1,0,0,-5]];perimeter=orthogonalPerimeter;outlineConnect=0;targetShapes=umlLifeline;portConstraint=eastwest;newEdgeStyle={&quot;curved&quot;:0,&quot;rounded&quot;:0};" vertex="1" parent="jPjjjJ8ltsQjpl7L8rjn-2">
          <mxGeometry x="66.25" y="70" width="12.5" height="30" as="geometry" />
        </mxCell>
        <mxCell id="jPjjjJ8ltsQjpl7L8rjn-4" value="" style="html=1;points=[[0,0,0,0,5],[0,1,0,0,-5],[1,0,0,0,5],[1,1,0,0,-5]];perimeter=orthogonalPerimeter;outlineConnect=0;targetShapes=umlLifeline;portConstraint=eastwest;newEdgeStyle={&quot;curved&quot;:0,&quot;rounded&quot;:0};" vertex="1" parent="jPjjjJ8ltsQjpl7L8rjn-2">
          <mxGeometry x="66.25" y="265" width="10" height="37.5" as="geometry" />
        </mxCell>
        <mxCell id="jPjjjJ8ltsQjpl7L8rjn-5" value="Blockchain" style="shape=umlLifeline;perimeter=lifelinePerimeter;whiteSpace=wrap;html=1;container=1;dropTarget=0;collapsible=0;recursiveResize=0;outlineConnect=0;portConstraint=eastwest;newEdgeStyle={&quot;edgeStyle&quot;:&quot;elbowEdgeStyle&quot;,&quot;elbow&quot;:&quot;vertical&quot;,&quot;curved&quot;:0,&quot;rounded&quot;:0};size=55;" vertex="1" parent="jPjjjJ8ltsQjpl7L8rjn-1">
          <mxGeometry x="600" y="80" width="150" height="410" as="geometry" />
        </mxCell>
        <mxCell id="jPjjjJ8ltsQjpl7L8rjn-6" value="" style="html=1;points=[[0,0,0,0,5],[0,1,0,0,-5],[1,0,0,0,5],[1,1,0,0,-5]];perimeter=orthogonalPerimeter;outlineConnect=0;targetShapes=umlLifeline;portConstraint=eastwest;newEdgeStyle={&quot;curved&quot;:0,&quot;rounded&quot;:0};" vertex="1" parent="jPjjjJ8ltsQjpl7L8rjn-5">
          <mxGeometry x="70" y="170" width="10" height="40" as="geometry" />
        </mxCell>
        <mxCell id="jPjjjJ8ltsQjpl7L8rjn-7" value="" style="html=1;points=[[0,0,0,0,5],[0,1,0,0,-5],[1,0,0,0,5],[1,1,0,0,-5]];perimeter=orthogonalPerimeter;outlineConnect=0;targetShapes=umlLifeline;portConstraint=eastwest;newEdgeStyle={&quot;curved&quot;:0,&quot;rounded&quot;:0};" vertex="1" parent="jPjjjJ8ltsQjpl7L8rjn-5">
          <mxGeometry x="70" y="350" width="10" height="37.5" as="geometry" />
        </mxCell>
        <mxCell id="jPjjjJ8ltsQjpl7L8rjn-8" value="Frontend" style="shape=umlLifeline;perimeter=lifelinePerimeter;whiteSpace=wrap;html=1;container=1;dropTarget=0;collapsible=0;recursiveResize=0;outlineConnect=0;portConstraint=eastwest;newEdgeStyle={&quot;edgeStyle&quot;:&quot;elbowEdgeStyle&quot;,&quot;elbow&quot;:&quot;vertical&quot;,&quot;curved&quot;:0,&quot;rounded&quot;:0};size=50;" vertex="1" parent="jPjjjJ8ltsQjpl7L8rjn-1">
          <mxGeometry x="270" y="75" width="100" height="415" as="geometry" />
        </mxCell>
        <mxCell id="jPjjjJ8ltsQjpl7L8rjn-9" value="" style="html=1;points=[[0,0,0,0,5],[0,1,0,0,-5],[1,0,0,0,5],[1,1,0,0,-5]];perimeter=orthogonalPerimeter;outlineConnect=0;targetShapes=umlLifeline;portConstraint=eastwest;newEdgeStyle={&quot;curved&quot;:0,&quot;rounded&quot;:0};" vertex="1" parent="jPjjjJ8ltsQjpl7L8rjn-8">
          <mxGeometry x="45" y="95" width="10" height="55" as="geometry" />
        </mxCell>
        <mxCell id="jPjjjJ8ltsQjpl7L8rjn-10" value="" style="html=1;points=[[0,0,0,0,5],[0,1,0,0,-5],[1,0,0,0,5],[1,1,0,0,-5]];perimeter=orthogonalPerimeter;outlineConnect=0;targetShapes=umlLifeline;portConstraint=eastwest;newEdgeStyle={&quot;curved&quot;:0,&quot;rounded&quot;:0};" vertex="1" parent="jPjjjJ8ltsQjpl7L8rjn-8">
          <mxGeometry x="45" y="235" width="10" height="37.5" as="geometry" />
        </mxCell>
        <mxCell id="jPjjjJ8ltsQjpl7L8rjn-11" value="" style="html=1;points=[[0,0,0,0,5],[0,1,0,0,-5],[1,0,0,0,5],[1,1,0,0,-5]];perimeter=orthogonalPerimeter;outlineConnect=0;targetShapes=umlLifeline;portConstraint=eastwest;newEdgeStyle={&quot;curved&quot;:0,&quot;rounded&quot;:0};" vertex="1" parent="jPjjjJ8ltsQjpl7L8rjn-8">
          <mxGeometry x="45" y="295" width="10" height="37.5" as="geometry" />
        </mxCell>
        <mxCell id="jPjjjJ8ltsQjpl7L8rjn-12" value="Contrato inteligente" style="shape=umlLifeline;perimeter=lifelinePerimeter;whiteSpace=wrap;html=1;container=1;dropTarget=0;collapsible=0;recursiveResize=0;outlineConnect=0;portConstraint=eastwest;newEdgeStyle={&quot;edgeStyle&quot;:&quot;elbowEdgeStyle&quot;,&quot;elbow&quot;:&quot;vertical&quot;,&quot;curved&quot;:0,&quot;rounded&quot;:0};size=55;" vertex="1" parent="jPjjjJ8ltsQjpl7L8rjn-1">
          <mxGeometry x="450" y="77.5" width="100" height="415" as="geometry" />
        </mxCell>
        <mxCell id="jPjjjJ8ltsQjpl7L8rjn-13" value="" style="html=1;points=[[0,0,0,0,5],[0,1,0,0,-5],[1,0,0,0,5],[1,1,0,0,-5]];perimeter=orthogonalPerimeter;outlineConnect=0;targetShapes=umlLifeline;portConstraint=eastwest;newEdgeStyle={&quot;curved&quot;:0,&quot;rounded&quot;:0};" vertex="1" parent="jPjjjJ8ltsQjpl7L8rjn-12">
          <mxGeometry x="45" y="142.5" width="10" height="37.5" as="geometry" />
        </mxCell>
        <mxCell id="jPjjjJ8ltsQjpl7L8rjn-14" value="" style="html=1;points=[[0,0,0,0,5],[0,1,0,0,-5],[1,0,0,0,5],[1,1,0,0,-5]];perimeter=orthogonalPerimeter;outlineConnect=0;targetShapes=umlLifeline;portConstraint=eastwest;newEdgeStyle={&quot;curved&quot;:0,&quot;rounded&quot;:0};" vertex="1" parent="jPjjjJ8ltsQjpl7L8rjn-12">
          <mxGeometry x="45" y="202.5" width="10" height="37.5" as="geometry" />
        </mxCell>
        <mxCell id="jPjjjJ8ltsQjpl7L8rjn-15" value="" style="html=1;points=[[0,0,0,0,5],[0,1,0,0,-5],[1,0,0,0,5],[1,1,0,0,-5]];perimeter=orthogonalPerimeter;outlineConnect=0;targetShapes=umlLifeline;portConstraint=eastwest;newEdgeStyle={&quot;curved&quot;:0,&quot;rounded&quot;:0};" vertex="1" parent="jPjjjJ8ltsQjpl7L8rjn-12">
          <mxGeometry x="45" y="322.5" width="10" height="37.5" as="geometry" />
        </mxCell>
        <mxCell id="jPjjjJ8ltsQjpl7L8rjn-16" style="edgeStyle=none;rounded=0;orthogonalLoop=1;jettySize=auto;html=1;curved=0;exitX=1;exitY=1;exitDx=0;exitDy=-5;exitPerimeter=0;" edge="1" parent="jPjjjJ8ltsQjpl7L8rjn-1" source="jPjjjJ8ltsQjpl7L8rjn-3" target="jPjjjJ8ltsQjpl7L8rjn-9">
          <mxGeometry relative="1" as="geometry" />
        </mxCell>
        <mxCell id="jPjjjJ8ltsQjpl7L8rjn-17" value="Ingreso de carga academica" style="text;html=1;align=center;verticalAlign=middle;resizable=0;points=[];autosize=1;strokeColor=none;fillColor=none;" vertex="1" parent="jPjjjJ8ltsQjpl7L8rjn-1">
          <mxGeometry x="145" y="150" width="170" height="30" as="geometry" />
        </mxCell>
        <mxCell id="jPjjjJ8ltsQjpl7L8rjn-18" style="edgeStyle=none;rounded=0;orthogonalLoop=1;jettySize=auto;html=1;curved=0;exitX=1;exitY=1;exitDx=0;exitDy=-5;exitPerimeter=0;" edge="1" parent="jPjjjJ8ltsQjpl7L8rjn-1" source="jPjjjJ8ltsQjpl7L8rjn-9" target="jPjjjJ8ltsQjpl7L8rjn-12">
          <mxGeometry relative="1" as="geometry" />
        </mxCell>
        <mxCell id="jPjjjJ8ltsQjpl7L8rjn-19" value="Enviar datos a verificar" style="text;html=1;align=center;verticalAlign=middle;resizable=0;points=[];autosize=1;strokeColor=none;fillColor=none;" vertex="1" parent="jPjjjJ8ltsQjpl7L8rjn-1">
          <mxGeometry x="340" y="198" width="150" height="30" as="geometry" />
        </mxCell>
        <mxCell id="jPjjjJ8ltsQjpl7L8rjn-20" style="edgeStyle=none;rounded=0;orthogonalLoop=1;jettySize=auto;html=1;curved=0;exitX=1;exitY=1;exitDx=0;exitDy=-5;exitPerimeter=0;" edge="1" parent="jPjjjJ8ltsQjpl7L8rjn-1" source="jPjjjJ8ltsQjpl7L8rjn-13" target="jPjjjJ8ltsQjpl7L8rjn-5">
          <mxGeometry relative="1" as="geometry" />
        </mxCell>
        <mxCell id="jPjjjJ8ltsQjpl7L8rjn-21" value="Registrar informaciÃ³n" style="text;html=1;align=center;verticalAlign=middle;resizable=0;points=[];autosize=1;strokeColor=none;fillColor=none;" vertex="1" parent="jPjjjJ8ltsQjpl7L8rjn-1">
          <mxGeometry x="520" y="228" width="140" height="30" as="geometry" />
        </mxCell>
        <mxCell id="jPjjjJ8ltsQjpl7L8rjn-22" style="edgeStyle=none;rounded=0;orthogonalLoop=1;jettySize=auto;html=1;curved=0;exitX=0;exitY=1;exitDx=0;exitDy=-5;exitPerimeter=0;" edge="1" parent="jPjjjJ8ltsQjpl7L8rjn-1" source="jPjjjJ8ltsQjpl7L8rjn-6" target="jPjjjJ8ltsQjpl7L8rjn-12">
          <mxGeometry relative="1" as="geometry" />
        </mxCell>
        <mxCell id="jPjjjJ8ltsQjpl7L8rjn-23" value="Retornar informacion registrada" style="text;html=1;align=center;verticalAlign=middle;resizable=0;points=[];autosize=1;strokeColor=none;fillColor=none;" vertex="1" parent="jPjjjJ8ltsQjpl7L8rjn-1">
          <mxGeometry x="495" y="265" width="190" height="30" as="geometry" />
        </mxCell>
        <mxCell id="jPjjjJ8ltsQjpl7L8rjn-24" style="edgeStyle=none;rounded=0;orthogonalLoop=1;jettySize=auto;html=1;curved=0;exitX=0;exitY=1;exitDx=0;exitDy=-5;exitPerimeter=0;" edge="1" parent="jPjjjJ8ltsQjpl7L8rjn-1" source="jPjjjJ8ltsQjpl7L8rjn-14" target="jPjjjJ8ltsQjpl7L8rjn-8">
          <mxGeometry relative="1" as="geometry" />
        </mxCell>
        <mxCell id="jPjjjJ8ltsQjpl7L8rjn-25" value="Registro exitoso" style="text;html=1;align=center;verticalAlign=middle;resizable=0;points=[];autosize=1;strokeColor=none;fillColor=none;" vertex="1" parent="jPjjjJ8ltsQjpl7L8rjn-1">
          <mxGeometry x="355" y="288" width="110" height="30" as="geometry" />
        </mxCell>
        <mxCell id="jPjjjJ8ltsQjpl7L8rjn-26" style="edgeStyle=none;rounded=0;orthogonalLoop=1;jettySize=auto;html=1;curved=0;exitX=0;exitY=1;exitDx=0;exitDy=-5;exitPerimeter=0;" edge="1" parent="jPjjjJ8ltsQjpl7L8rjn-1" source="jPjjjJ8ltsQjpl7L8rjn-10" target="jPjjjJ8ltsQjpl7L8rjn-2">
          <mxGeometry relative="1" as="geometry" />
        </mxCell>
        <mxCell id="jPjjjJ8ltsQjpl7L8rjn-27" value="Respuesta exitosa" style="text;html=1;align=center;verticalAlign=middle;resizable=0;points=[];autosize=1;strokeColor=none;fillColor=none;" vertex="1" parent="jPjjjJ8ltsQjpl7L8rjn-1">
          <mxGeometry x="170" y="318" width="120" height="30" as="geometry" />
        </mxCell>
        <mxCell id="jPjjjJ8ltsQjpl7L8rjn-28" style="edgeStyle=none;rounded=0;orthogonalLoop=1;jettySize=auto;html=1;curved=0;exitX=1;exitY=1;exitDx=0;exitDy=-5;exitPerimeter=0;" edge="1" parent="jPjjjJ8ltsQjpl7L8rjn-1" source="jPjjjJ8ltsQjpl7L8rjn-4" target="jPjjjJ8ltsQjpl7L8rjn-8">
          <mxGeometry relative="1" as="geometry" />
        </mxCell>
        <mxCell id="jPjjjJ8ltsQjpl7L8rjn-29" value="Ingresar horarios estudiantes y docentes" style="text;html=1;align=center;verticalAlign=middle;resizable=0;points=[];autosize=1;strokeColor=none;fillColor=none;fontSize=10;" vertex="1" parent="jPjjjJ8ltsQjpl7L8rjn-1">
          <mxGeometry x="130" y="348" width="200" height="30" as="geometry" />
        </mxCell>
        <mxCell id="jPjjjJ8ltsQjpl7L8rjn-30" style="edgeStyle=none;rounded=0;orthogonalLoop=1;jettySize=auto;html=1;curved=0;exitX=1;exitY=1;exitDx=0;exitDy=-5;exitPerimeter=0;" edge="1" parent="jPjjjJ8ltsQjpl7L8rjn-1" source="jPjjjJ8ltsQjpl7L8rjn-11" target="jPjjjJ8ltsQjpl7L8rjn-12">
          <mxGeometry relative="1" as="geometry" />
        </mxCell>
        <mxCell id="jPjjjJ8ltsQjpl7L8rjn-32" style="edgeStyle=none;rounded=0;orthogonalLoop=1;jettySize=auto;html=1;curved=0;exitX=1;exitY=1;exitDx=0;exitDy=-5;exitPerimeter=0;" edge="1" parent="jPjjjJ8ltsQjpl7L8rjn-1" source="jPjjjJ8ltsQjpl7L8rjn-15" target="jPjjjJ8ltsQjpl7L8rjn-5">
          <mxGeometry relative="1" as="geometry" />
        </mxCell>
        <mxCell id="jPjjjJ8ltsQjpl7L8rjn-33" value="Generar horarios" style="text;html=1;align=center;verticalAlign=middle;resizable=0;points=[];autosize=1;strokeColor=none;fillColor=none;" vertex="1" parent="jPjjjJ8ltsQjpl7L8rjn-1">
          <mxGeometry x="535" y="408" width="110" height="30" as="geometry" />
        </mxCell>
        <mxCell id="jPjjjJ8ltsQjpl7L8rjn-34" value="Capturar horarios" style="text;html=1;align=center;verticalAlign=middle;resizable=0;points=[];autosize=1;strokeColor=none;fillColor=none;" vertex="1" parent="jPjjjJ8ltsQjpl7L8rjn-1">
          <mxGeometry x="355" y="378" width="120" height="30" as="geometry" />
        </mxCell>
      </root>
    </mxGraphModel>
  </diagram>
</mxfile>
